<svg version="1.1" id="图层_1" xmlns="http://www.w3.org/2000/svg" x="0" y="0" viewBox="0 0 20 20" xml:space="preserve"><style>.st1{opacity:.5}.st2{fill:#2e68f8}.st3{fill:#fc4d4e}.st6{fill:#76b64f}.st7{fill:#ffcb4b}</style><path fill="none" d="M0 0h20v20H0z" id="Rectangle-3"/><g id="Oval-3" class="st1"><circle class="st2" cx="7" cy="5.5" r=".5"/></g><g id="Oval-3-Copy" class="st1"><circle class="st2" cx="14.5" cy="9" r=".5"/></g><g id="Group-3" transform="rotate(45 -10.646 22.096)"><g id="Path-6" transform="translate(0 4)"><path class="st3" d="M-9.4-2.5l4 10.2c.3.5.9.7 1.4.5.2-.1.4-.3.5-.5L.6-2.5h-10z" id="Mask"/><path d="M-10.2.1c2.2 1 3 2.6 5.6 2.7C-3 2.8-1.1 2 .8.4L1-.7C-.8.9-2.7 1.7-4.7 1.6c-2-.1-3.8-1-5.5-2.7-1.5.1-1.5.5 0 1.2z" fill="#ff8081"/></g><path d="M-4.7 3c3 0 5.3-.3 5.3-1.7C.6.6-1.6-.4-4.7-.4c-2.5 0-4.7.6-4.7 1.7S-7.2 3-4.7 3z" fill="#d12425" id="Oval-2"/></g><g id="Group-4" transform="translate(29 26)" class="st1"><path class="st6" d="M-12.8-13c.1 0 .1.1.1.1v.8c0 .1-.1.2-.1.2s-.2-.1-.2-.2v-.8c.1 0 .1-.1.2-.1zm-.4 1.3c-.1.1-.2.1-.2 0l-.6-.6c-.1-.1-.1-.1 0-.2s.2-.1.2 0l.6.6c.1 0 .1.1 0 .2zm.9 0c-.1-.1-.1-.2 0-.2l.6-.6c.1-.1.1-.1.2 0s.1.2 0 .2l-.6.6c0 .1-.1.1-.2 0zm-.5.6c.1 0 .1.1.1.2v.8s0 .1-.1.1-.2-.1-.2-.1v-.8c.1-.2.1-.2.2-.2zm-.4-.3c.1.1.1.2 0 .2l-.6.6c-.1.1-.1.1-.2 0s-.1-.2 0-.2l.6-.6h.2zm.9 0h.2l.6.6c.1.1.1.2 0 .2s-.2.1-.2 0l-.6-.6c-.1 0-.1-.1 0-.2z" id="Combined-Shape"/></g><path class="st3" d="M-1.5-2.5c.2 0 .3.1.3.2v1c0 .2-.1.3-.3.3-.2 0-.3-.1-.3-.2v-1c.1-.2.2-.3.3-.3zm-.6 1.8c-.1.1-.2.1-.4 0l-.7-.7c-.1-.1-.1-.3 0-.4.1-.1.2-.1.3 0l.7.7c.2.1.2.3.1.4zm1.3 0c-.1-.1-.1-.3 0-.4l.7-.7c.1-.1.3-.1.4 0 .1.1.1.2 0 .4l-.7.7c-.2.1-.3.1-.4 0zm-.7.7c.2 0 .3.1.3.3v1c0 .2-.1.3-.2.3s-.3-.1-.3-.2v-1c0-.3.1-.4.2-.4zm-.6-.3c.1.1.1.3 0 .4l-.7.7c-.1.1-.2.1-.4 0-.1-.1-.1-.3 0-.4l.7-.7c.1-.1.3-.1.4 0zm1.3 0c.1-.1.3-.1.4 0l.8.7C.5.5.5.7.4.7S0 .9-.1.8L-.9.1c0-.1 0-.3.1-.4z" transform="rotate(30 -12.928 11.464)" id="Group-4-Copy"/><path class="st7" d="M.5 12l.1.1v.4c0 .1 0 .1-.1.1H.4v-.5l.1-.1zm-.3.8c-.1.1-.1.1-.1 0l-.4-.3v-.1c.1-.1.1-.1.2 0l.3.3c.1 0 .1.1 0 .1zm.7 0v-.2l.4-.3c0-.1.1-.1.1 0v.1l-.4.4c0 .1-.1.1-.1 0zm-.4.3l.1.1v.4c0 .1 0 .1-.1.1s-.1 0-.1-.1v-.5c0 .1.1 0 .1 0zM.2 13c.1.1.1.1 0 .1l-.3.4c-.1.1-.1.1-.2 0s0-.1 0-.1l.4-.4c0-.1.1-.1.1 0zm.7 0c0-.1.1-.1.1 0l.4.4v.1c-.1.1-.1.1-.1 0l-.4-.3c-.1-.1-.1-.1 0-.2z" transform="rotate(90 11.5 12.5)" id="Group-4-Copy-2"/><path class="st6" d="M8.5 10.5c-.1 0-.1 0-.2-.1-.3-.1-.4-.4-.2-.6 1.2-2.5 1.2-4.8 0-7.1-.2-.2-.1-.5.1-.7.3 0 .6 0 .7.2 1.4 2.5 1.4 5.2 0 7.9 0 .3-.2.4-.4.4z" id="Path-8"/><path class="st7" d="M12.5 8.5c-.2 0-.4-.1-.4-.3-.6-1.2-.6-1.8-.4-2.3.1-.1.3-.4.8-.4s1.1.3 1.6.6c0 0 .1 0 .1.1-.3-.8-.7-1.8-.2-2.4.4-.6 1-.8 2-.8.3 0 .5.2.5.5s-.2.5-.5.5c-.9 0-1.1.2-1.2.3-.1.2.1.9.4 1.5.1.2.1.3.2.4.1.2.2.7-.1 1-.4.3-.9.1-1.6-.2-.4-.2-.9-.4-1.2-.5 0 .2.1.5.4 1.3.1.2 0 .6-.2.6-.1.1-.1.1-.2.1zm-.1-2z" id="Path-9"/><path class="st3" d="M17.5 8.2c-.4 0-.8-.2-1.2-.8-.1-.1-.1-.2 0-.3s.2-.1.4 0c.2.3.7.7 1 .6 0-.1-.1-.3-.2-.4-.1-.3-.3-.6-.1-.8.1-.2.2-.2.5-.2.4 0 .8.2 1.1.5 0 .1.1.2.2.2v-.4c0-.2.1-.2.2-.2s.2.1.2.2c0 .4 0 .8-.3.9-.3.2-.5-.1-.9-.3-.2-.2-.5-.4-.8-.4 0 .1.1.2.1.3.1.3.5.8 0 1.1h-.2z" id="Path-10" opacity=".5"/><path d="M10 13c-.2 0-.4-.1-.4-.2-.1-.2-.1-.6.2-.7 2.5-1.4 4.9-1.9 7.4-1.4.2.1.5.3.4.6 0 .2-.3.4-.6.4-2.1-.4-4.4 0-6.6 1.3H10z" fill="#5bc1ff" id="Path-12"/></svg>