<?xml version="1.0" encoding="utf-8"?>
<!-- Generator: Adobe Illustrator 23.0.0, SVG Export Plug-In . SVG Version: 6.00 Build 0)  -->
<svg version="1.1" id="图层_1" xmlns="http://www.w3.org/2000/svg" xmlns:xlink="http://www.w3.org/1999/xlink" x="0px" y="0px"
	 viewBox="0 0 96 96" style="enable-background:new 0 0 96 96;" xml:space="preserve">
<style type="text/css">
	.st0{fill-rule:evenodd;clip-rule:evenodd;fill:#738FE6;}
	.st1{fill:#FFFFFF;}
</style>
<g>
	<circle id="Oval-Copy-7" class="st0" cx="48" cy="48" r="48"/>
	<path class="st1" d="M58.6,24c-7.1,0-12.9,5.5-13.4,12.5h0v22.1c0,4.2-3.4,7.7-7.7,7.7c-4.2,0-7.7-3.4-7.7-7.7
		c0-4.2,3.4-7.7,7.7-7.7v-5.8c-7.4,0-13.4,6-13.4,13.4C24,66,30,72,37.4,72c6.8,0,12.4-5,13.3-11.5h0.2v-23c0-4.2,3.4-7.7,7.7-7.7
		c4.2,0,7.7,3.4,7.7,7.7c0,4.2-3.4,7.7-7.7,7.7v5.8c7.4,0,13.4-6,13.4-13.4C72,30,66,24,58.6,24z"/>
</g>
</svg>
