<?xml version="1.0" encoding="UTF-8"?>
<svg width="72px" height="72px" viewBox="0 0 72 72" version="1.1" xmlns="http://www.w3.org/2000/svg" xmlns:xlink="http://www.w3.org/1999/xlink">
    <!-- Generator: Sketch 53.2 (72643) - https://sketchapp.com -->
    <title>04 图标/分享/安卓/微信</title>
    <desc>Created with Sketch.</desc>
    <g id="04-图标/分享/安卓/微信" stroke="none" stroke-width="1" fill="none" fill-rule="evenodd">
        <circle id="Oval-Copy-5" fill="#45C660" cx="36" cy="36" r="36"></circle>
        <g id="微信" transform="translate(16.000000, 17.000000)" fill="#FFFFFF" fill-rule="nonzero">
            <path d="M34.2211494,22.8792352 C33.47184,22.8792352 32.7091021,22.0416262 32.709102,21.1877001 C32.709102,20.3446521 33.4691543,19.4934456 34.2211494,19.4934456 C35.3652562,19.4934456 36.1253085,20.3419326 36.1253084,21.1877001 C36.1253084,22.0416261 35.3652562,22.8792352 34.2211494,22.8792352 M25.8552037,22.8792352 C25.1032085,22.8792352 24.3350993,22.0416262 24.3350993,21.1877001 C24.3350993,20.3446521 25.1005229,19.4934456 25.8552037,19.4934456 C27.0100533,19.4934456 27.7593627,20.3419326 27.7593627,21.1877001 C27.7593627,22.0416261 27.0100533,22.8792352 25.8552037,22.8792352 M42.9711498,25.0004527 C42.9711498,18.2288736 36.8853607,12.7082689 30.0502621,12.7082688 C22.8123091,12.7082688 17.1159461,18.2288735 17.1159461,25.0004527 C17.1159461,31.7910685 22.8149948,37.2926366 30.0502621,37.2926366 C31.5649952,37.2926366 33.0931567,36.8711126 34.6132611,36.4495885 L38.7841483,38.9950496 L37.6400415,34.760773 C40.6936788,32.2044339 42.9711498,28.8213638 42.9711498,25.0004527 M10.2674191,11.4382578 C9.12599795,11.4382578 7.97651967,10.5870513 7.97651967,9.31704025 C7.97651967,8.0443097 9.12599791,7.20398121 10.2674191,7.20398121 C11.4088403,7.20398121 12.1662068,8.04159018 12.1662068,9.31975977 C12.1662068,10.5870513 11.4088403,11.4382578 10.2674191,11.4382578 M20.9108358,7.20398121 C22.060314,7.20398121 22.8149948,8.04702923 22.8149948,9.31975977 C22.8149948,10.5870513 22.060314,11.4382578 20.9108358,11.4382578 C19.774786,11.4382578 18.6279934,10.5870513 18.6279934,9.31704025 C18.6279934,8.04159018 19.7721003,7.20398121 20.9108358,7.20398121 M29.086097,11.7972331 C29.5802652,11.7972331 30.0663763,11.8380257 30.5551732,11.897855 C29.2391817,5.07188558 22.6887671,0 15.2091013,0 C6.84852699,0 0,6.34461613 0,14.4079624 C0,19.058324 2.27747092,22.8792352 6.0857891,25.8489397 L4.56568465,30.9425814 L9.88336443,27.9755963 C11.7848378,28.3916813 13.3103136,28.8213638 15.2091013,28.8213638 C15.6871554,28.8213638 16.159838,28.7968882 16.6271492,28.7588151 C16.3192985,27.5995909 16.1613137,26.4048144 16.1571523,25.2044159 C16.159838,17.8019105 21.8642582,11.7972331 29.086097,11.7972331" id="Shape"></path>
        </g>
    </g>
</svg>