<?xml version="1.0" encoding="UTF-8"?>
<svg width="72px" height="72px" viewBox="0 0 72 72" version="1.1" xmlns="http://www.w3.org/2000/svg" xmlns:xlink="http://www.w3.org/1999/xlink">
    <!-- Generator: Sketch 52.6 (67491) - http://www.bohemiancoding.com/sketch -->
    <title>04 图标/移动端图标/手机</title>
    <desc>Created with Sketch.</desc>
    <g id="04-图标/移动端图标/手机" stroke="none" stroke-width="1" fill="none" fill-rule="evenodd">
        <g id="我的电脑" fill="#5A85F0">
            <circle id="Oval" cx="36" cy="36" r="36"></circle>
        </g>
        <path d="M30,20 L42.404601,20 C44.61374,20 46.404601,21.790861 46.404601,24 L46.404601,46.6069015 C46.404601,48.8160405 44.61374,50.6069015 42.404601,50.6069015 L30,50.6069015 C27.790861,50.6069015 26,48.8160405 26,46.6069015 L26,24 C26,21.790861 27.790861,20 30,20 Z M28,22 L28,44.3175324 L44.3034508,44.3175324 L44.3034508,22 L28,22 Z M34.9564657,46 C34.4282243,46 34,46.4282243 34,46.9564657 C34,47.4847071 34.4282243,47.9129313 34.9564657,47.9129313 L38.1446846,47.9129313 C38.672926,47.9129313 39.1011503,47.4847071 39.1011503,46.9564657 C39.1011503,46.4282243 38.672926,46 38.1446846,46 L34.9564657,46 Z" id="Combined-Shape" fill="#FFFFFF"></path>
    </g>
</svg>