<?xml version="1.0" encoding="UTF-8"?>
<svg width="72px" height="72px" viewBox="0 0 72 72" version="1.1" xmlns="http://www.w3.org/2000/svg" xmlns:xlink="http://www.w3.org/1999/xlink">
    <!-- Generator: Sketch 53.1 (72631) - https://sketchapp.com -->
    <title>04 图标/移动端图标/团队文件夹</title>
    <desc>Created with Sketch.</desc>
    <g id="04-图标/移动端图标/团队文件夹" stroke="none" stroke-width="1" fill="none" fill-rule="evenodd">
        <g id="Group">
            <circle id="Oval-Copy" fill="#5A85F0" cx="36" cy="36" r="36"></circle>
            <path d="M52,27 L49,27 L49,24 L20,24 L20,46 L39.7058824,46 L39.7058824,49 L15,49 L15,46 L17,46 L17,23.4705882 C17,22.10612 18.10612,21 19.4705882,21 L49.5294118,21 C50.89388,21 52,22.10612 52,23.4705882 L52,27 Z M44.4705882,29 L54.5294118,29 C55.89388,29 57,30.10612 57,31.4705882 L57,48.5294118 C57,49.89388 55.89388,51 54.5294118,51 L44.4705882,51 C43.10612,51 42,49.89388 42,48.5294118 L42,31.4705882 C42,30.10612 43.10612,29 44.4705882,29 Z M44.6470588,32 L44.6470588,47 L54.5294118,47 L54.5294118,32 L44.6470588,32 Z" id="Combined-Shape" fill="#FFFFFF"></path>
        </g>
    </g>
</svg>