<?xml version="1.0" encoding="UTF-8"?>
<svg width="72px" height="72px" viewBox="0 0 72 72" version="1.1" xmlns="http://www.w3.org/2000/svg" xmlns:xlink="http://www.w3.org/1999/xlink">
    <!-- Generator: Sketch 53.1 (72631) - https://sketchapp.com -->
    <title>04 图标/移动端图标/团队文件夹</title>
    <desc>Created with Sketch.</desc>
    <g id="04-图标/移动端图标/团队文件夹" stroke="none" stroke-width="1" fill="none" fill-rule="evenodd">
        <g id="Group" fill="#5A85F0">
            <circle id="Oval-Copy" cx="36" cy="36" r="36"></circle>
        </g>
        <path d="M39.367323,44.7061836 L29.7056775,40.2008843 C28.7329173,41.5502096 27.1476063,42.4285714 25.3571429,42.4285714 C22.3984746,42.4285714 20,40.0300969 20,37.0714286 C20,34.1127603 22.3984746,31.7142857 25.3571429,31.7142857 C27.1463929,31.7142857 28.7307685,32.5914575 29.7036989,33.9392302 L39.6169352,28.2158205 C39.402724,27.6367958 39.2857143,27.0106338 39.2857143,26.3571429 C39.2857143,23.3984746 41.6841888,21 44.6428571,21 C47.6015254,21 50,23.3984746 50,26.3571429 C50,29.3158112 47.6015254,31.7142857 44.6428571,31.7142857 C43.1089964,31.7142857 41.7256984,31.0696499 40.7491051,30.0365202 L30.5866705,35.9038046 C30.6702214,36.2796691 30.7142857,36.670403 30.7142857,37.0714286 C30.7142857,37.4751172 30.6696343,37.8683769 30.5850008,38.2465383 L40.1586089,42.710785 C41.115463,41.2503656 42.7665069,40.2857143 44.6428571,40.2857143 C47.6015254,40.2857143 50,42.6841888 50,45.6428571 C50,48.6015254 47.6015254,51 44.6428571,51 C41.6841888,51 39.2857143,48.6015254 39.2857143,45.6428571 C39.2857143,45.3233269 39.313689,45.0103306 39.367323,44.7061836 Z" id="Oval-6" fill="#FFFFFF"></path>
    </g>
</svg>